<?xml version="1.0" standalone="no"?>
<!DOCTYPE svg PUBLIC "-//W3C//DTD SVG 20010904//EN"
 "http://www.w3.org/TR/2001/REC-SVG-20010904/DTD/svg10.dtd">
<svg version="1.0" xmlns="http://www.w3.org/2000/svg"
 width="128.000000pt" height="128.000000pt" viewBox="0 0 128.000000 128.000000"
 preserveAspectRatio="xMidYMid meet">

<g transform="translate(0.000000,128.000000) scale(0.100000,-0.100000)"
fill="#000000" stroke="none">
<path d="M777 1169 c-10 -6 -27 -25 -37 -42 -19 -31 -21 -31 -102 -32 -46 -1
-100 -7 -121 -14 -38 -13 -38 -13 -73 28 -21 24 -44 41 -56 41 -12 0 -44 -17
-72 -39 -28 -21 -62 -44 -75 -51 -21 -11 -23 -17 -18 -57 5 -50 31 -92 65
-108 27 -12 27 -21 1 -80 -29 -65 -22 -123 21 -176 l32 -41 -24 -26 c-41 -44
-64 -84 -81 -139 -24 -73 -22 -86 15 -102 28 -13 35 -12 60 2 30 17 47 7 23
-13 -33 -27 -1 -91 38 -77 8 2 17 -20 27 -61 9 -37 22 -69 32 -76 26 -16 70 4
88 39 8 17 26 45 39 63 21 30 27 33 70 30 l46 -3 18 -56 c17 -53 20 -57 55
-63 20 -3 48 -6 60 -6 22 0 23 3 17 40 -4 25 -3 46 4 54 6 7 18 35 25 61 8 26
24 54 35 62 14 10 21 25 21 49 0 35 5 40 28 26 10 -7 9 -16 -3 -45 -18 -44 -9
-75 32 -107 23 -18 37 -21 82 -18 97 8 128 79 69 161 -13 18 -24 50 -26 72 -1
22 -3 55 -4 73 -1 17 -5 32 -10 32 -4 0 -7 -3 -7 -7 4 -26 -4 -41 -27 -51 -19
-9 -24 -17 -19 -32 4 -12 2 -20 -6 -20 -6 0 -22 -12 -35 -27 l-24 -28 0 25 c0
32 26 70 47 70 11 0 14 6 9 23 -3 12 -6 28 -6 35 0 6 -5 12 -10 12 -6 0 -8
-11 -4 -26 8 -32 2 -29 -64 24 l-43 34 40 43 c64 69 66 137 6 204 -19 20 -36
53 -40 74 -7 35 -6 37 18 37 30 0 45 16 53 58 8 42 -2 79 -24 86 -10 3 -42 22
-72 41 -59 38 -66 40 -93 24z m108 -46 c39 -24 66 -47 69 -60 7 -25 -17 -93
-33 -93 -22 0 -74 56 -101 109 -16 31 -29 48 -30 38 0 -23 32 -86 66 -126 17
-21 24 -39 21 -52 -7 -25 6 -50 51 -102 60 -70 36 -165 -57 -216 l-42 -23 -15
21 c-19 26 -32 26 -64 1 -26 -21 -70 -26 -85 -11 -10 9 -37 14 -63 12 -7 0
-17 -13 -23 -27 -9 -26 -12 -26 -64 -20 -166 19 -257 107 -219 210 9 22 18 55
21 71 3 17 23 49 44 73 42 49 68 128 50 159 -9 15 -10 12 -11 -18 0 -46 -43
-132 -74 -149 -34 -18 -54 -7 -76 42 -26 58 -25 75 8 92 16 8 48 31 71 50 24
20 49 36 56 36 13 0 69 -58 76 -79 3 -7 22 -5 58 6 37 11 79 14 137 11 46 -2
81 0 78 4 -9 15 46 78 67 78 11 0 48 -17 84 -37z m-90 -516 c1 -7 -4 -15 -10
-19 -6 -5 -6 -8 3 -8 6 0 12 -8 12 -17 0 -15 -1 -15 -12 -1 -7 9 -20 18 -28
21 -12 4 -11 6 3 6 9 1 17 5 17 11 0 5 -8 7 -17 4 -16 -5 -15 -3 1 10 20 16
31 14 31 -7z m-134 -19 l12 -23 -24 20 c-16 14 -20 15 -11 3 9 -10 11 -26 6
-40 -6 -21 -6 -22 12 -8 17 14 18 14 6 -2 -13 -17 -36 -18 -49 -3 -4 4 -2 5 5
1 18 -11 15 5 -5 19 -15 11 -16 15 -3 31 9 11 10 15 3 10 -7 -4 -13 -2 -13 3
0 21 49 12 61 -11z m74 -13 c0 -5 -9 -11 -21 -13 -13 -2 -21 3 -21 13 0 10 8
15 21 13 12 -2 21 -7 21 -13z m-112 -85 c13 0 32 7 43 15 10 8 22 15 27 15 4
0 8 -33 9 -72 l2 -73 5 75 c6 81 3 78 71 63 34 -9 35 -10 38 -62 3 -58 -5 -71
-45 -71 -16 0 -22 -7 -25 -27 -3 -24 -8 -28 -40 -31 -35 -3 -38 -1 -38 22 0
23 -4 26 -34 26 -64 0 -66 3 -66 99 1 83 1 85 15 54 10 -24 21 -33 38 -33z
m467 -11 c0 -5 -9 -9 -20 -9 -19 0 -27 20 -13 33 7 8 33 -11 33 -24z m-18 -41
c-9 -9 -15 -9 -24 0 -9 9 -7 12 12 12 19 0 21 -3 12 -12z m-37 -14 c14 -9 32
-14 40 -10 22 8 55 -50 55 -95 0 -43 -23 -68 -74 -76 -71 -11 -125 35 -113 97
5 25 54 100 65 100 1 0 14 -7 27 -16z m-705 -9 c43 -22 38 -40 -18 -69 -39
-20 -44 -17 -44 20 0 25 -2 26 -13 10 -20 -27 -30 0 -11 29 19 29 45 31 86 10z
m33 -105 c-13 -5 -23 -14 -23 -19 0 -17 20 -23 35 -11 12 10 15 9 15 -4 0 -21
-48 -22 -56 -1 -10 24 4 45 28 44 l23 0 -22 -9z m7 -20 c0 -5 -4 -10 -10 -10
-5 0 -10 5 -10 10 0 6 5 10 10 10 6 0 10 -4 10 -10z m440 -116 c0 -10 -14 -14
-50 -14 -36 0 -50 4 -50 14 0 10 14 14 50 14 36 0 50 -4 50 -14z m-293 -8 c-5
-15 -89 -14 -94 1 -3 9 10 12 47 12 32 -1 49 -6 47 -13z"/>
<path d="M747 1016 c-4 -9 -2 -18 3 -21 13 -8 41 6 37 19 -6 17 -34 19 -40 2z"/>
<path d="M530 1006 c0 -11 9 -16 26 -16 31 0 28 23 -4 28 -15 2 -22 -2 -22
-12z"/>
<path d="M761 924 c-12 -15 -21 -30 -21 -34 0 -4 -17 -11 -37 -15 -114 -21
-151 -122 -63 -168 27 -14 50 -17 100 -14 54 4 68 9 87 32 27 31 29 66 7 100
-10 15 -12 25 -5 25 13 0 15 36 2 45 -5 3 -16 -2 -24 -10 -35 -35 -68 -9 -42
32 15 22 22 25 61 20 24 -2 41 -1 38 4 -3 5 -23 9 -44 9 -30 0 -43 -6 -59 -26z
m30 -74 c10 -6 19 -18 19 -26 0 -8 5 -12 10 -9 16 10 9 -64 -7 -77 -7 -6 -13
-7 -13 -2 0 5 -4 4 -8 -2 -8 -13 -112 -25 -112 -13 0 5 -7 5 -17 2 -11 -4 -14
-3 -9 6 6 8 2 11 -10 9 -22 -4 -44 35 -36 64 12 47 128 77 183 48z"/>
<path d="M782 821 c-16 -10 -12 -63 5 -68 6 -2 16 4 21 14 13 24 -7 66 -26 54z"/>
<path d="M669 796 c-15 -32 4 -64 27 -45 18 15 18 43 -1 59 -12 10 -17 8 -26
-14z"/>
<path d="M538 930 c40 -9 69 -34 75 -64 l4 -21 2 22 c1 28 -53 73 -87 72 -25
-1 -24 -2 6 -9z"/>
<path d="M461 904 c-12 -15 -21 -38 -20 -53 1 -22 2 -21 9 9 5 19 18 43 30 52
12 10 18 18 12 18 -6 0 -20 -12 -31 -26z"/>
<path d="M534 855 c-4 -9 -2 -21 4 -27 15 -15 44 -1 40 19 -4 23 -36 29 -44 8z"/>
<path d="M550 749 c0 -18 57 -69 77 -69 16 1 16 2 -2 12 -33 18 -65 50 -59 59
3 5 0 9 -5 9 -6 0 -11 -5 -11 -11z"/>
<path d="M680 360 c0 -5 4 -10 9 -10 6 0 13 5 16 10 3 6 -1 10 -9 10 -9 0 -16
-4 -16 -10z"/>
<path d="M720 360 c0 -6 -10 -15 -22 -20 -21 -8 -20 -9 10 -9 26 -1 32 3 32
19 0 11 -4 20 -10 20 -5 0 -10 -5 -10 -10z"/>
<path d="M1017 379 c-25 -14 -21 -36 11 -54 l27 -16 -27 6 c-21 4 -28 1 -28
-10 0 -8 4 -15 9 -15 5 0 16 -3 24 -6 14 -5 47 20 47 36 0 5 -12 16 -27 25
-23 13 -24 15 -5 10 26 -8 30 10 4 24 -11 6 -24 6 -35 0z"/>
<path d="M280 413 c8 -3 27 -12 43 -20 15 -7 27 -11 27 -9 0 8 -58 36 -72 35
-9 0 -8 -2 2 -6z"/>
<path d="M1030 556 c7 -7 13 -7 20 0 6 6 3 10 -10 10 -13 0 -16 -4 -10 -10z"/>
</g>
</svg>
